<svg width="661" height="791" xmlns="http://www.w3.org/2000/svg" xmlns:xlink="http://www.w3.org/1999/xlink" xml:space="preserve" overflow="hidden"><defs><filter id="fx0" x="-10%" y="-10%" width="120%" height="120%" filterUnits="userSpaceOnUse" primitiveUnits="userSpaceOnUse"><feComponentTransfer color-interpolation-filters="sRGB"><feFuncR type="discrete" tableValues="0.360784 0.360784"/><feFuncG type="discrete" tableValues="0.447059 0.447059"/><feFuncB type="discrete" tableValues="0.588235 0.588235"/><feFuncA type="linear" slope="0.4" intercept="0"/></feComponentTransfer><feGaussianBlur stdDeviation="6.11111 6.11111"/></filter><filter id="fx1" x="-10%" y="-10%" width="120%" height="120%" filterUnits="userSpaceOnUse" primitiveUnits="userSpaceOnUse"><feComponentTransfer color-interpolation-filters="sRGB"><feFuncR type="discrete" tableValues="0.360784 0.360784"/><feFuncG type="discrete" tableValues="0.447059 0.447059"/><feFuncB type="discrete" tableValues="0.588235 0.588235"/><feFuncA type="linear" slope="0.4" intercept="0"/></feComponentTransfer><feGaussianBlur stdDeviation="6.11111 6.11111"/></filter><filter id="fx2" x="-10%" y="-10%" width="120%" height="120%" filterUnits="userSpaceOnUse" primitiveUnits="userSpaceOnUse"><feComponentTransfer color-interpolation-filters="sRGB"><feFuncR type="discrete" tableValues="0.360784 0.360784"/><feFuncG type="discrete" tableValues="0.447059 0.447059"/><feFuncB type="discrete" tableValues="0.588235 0.588235"/><feFuncA type="linear" slope="0.4" intercept="0"/></feComponentTransfer><feGaussianBlur stdDeviation="6.11111 6.11111"/></filter><filter id="fx3" x="-10%" y="-10%" width="120%" height="120%" filterUnits="userSpaceOnUse" primitiveUnits="userSpaceOnUse"><feComponentTransfer color-interpolation-filters="sRGB"><feFuncR type="discrete" tableValues="0.360784 0.360784"/><feFuncG type="discrete" tableValues="0.447059 0.447059"/><feFuncB type="discrete" tableValues="0.588235 0.588235"/><feFuncA type="linear" slope="0.4" intercept="0"/></feComponentTransfer><feGaussianBlur stdDeviation="6.11111 6.11111"/></filter><clipPath id="clip4"><rect x="71" y="110" width="661" height="791"/></clipPath><radialGradient cx="26323.5" cy="835429" r="835844" fx="0" fy="1670858" gradientUnits="userSpaceOnUse" spreadMethod="pad" id="fill5" gradientTransform="matrix(-6.62949e-20 -0.000360892 0.000360892 -6.62949e-20 93 485)"><stop offset="0" stop-color="#FFFFFF"/><stop offset="0.08" stop-color="#FFFFFF"/><stop offset="0.5" stop-color="#3F5579"/><stop offset="0.91" stop-color="#212E47"/><stop offset="1" stop-color="#212E47"/></radialGradient><radialGradient cx="22167.5" cy="993371" r="993618" fx="0" fy="1986742" gradientUnits="userSpaceOnUse" spreadMethod="pad" id="fill6" gradientTransform="matrix(0.000360892 0 0 0.000360892 94.9999 132)"><stop offset="0" stop-color="#FFFFFF"/><stop offset="0.6" stop-color="#3F5579"/><stop offset="0.94" stop-color="#212E47"/><stop offset="1" stop-color="#212E47"/></radialGradient></defs><g clip-path="url(#clip4)" transform="translate(-71 -110)"><rect x="93" y="466" width="603" height="18.9999" fill="url(#fill5)"/><rect x="680" y="466" width="16.0002" height="67" fill="#FFFFFF"/><rect x="94.9999" y="132" width="16.0002" height="717" fill="url(#fill6)"/><g filter="url(#fx0)" transform="translate(69 108)"><g><path d="M20.4816 39.9818C20.4816 29.2123 29.2121 20.4818 39.9817 20.4818 50.7513 20.4818 59.4818 29.2123 59.4818 39.9818 59.4818 50.7513 50.7513 59.4817 39.9817 59.4817 29.2121 59.4817 20.4816 50.7513 20.4816 39.9818Z" fill="#F2F2F2" fill-rule="evenodd"/></g></g><path d="M82.9998 141.5C82.9998 130.73 91.7303 122 102.5 122 113.27 122 122 130.73 122 141.5 122 152.269 113.27 161 102.5 161 91.7303 161 82.9998 152.269 82.9998 141.5Z" fill="#F2F2F2" fill-rule="evenodd"/><g filter="url(#fx1)" transform="translate(69 499)"><g><path d="M20.4816 39.9818C20.4816 29.2122 29.2121 20.4817 39.9817 20.4817 50.7513 20.4817 59.4818 29.2122 59.4818 39.9818 59.4818 50.7514 50.7513 59.4819 39.9817 59.4819 29.2121 59.4819 20.4816 50.7514 20.4816 39.9818Z" fill="#F2F2F2" fill-rule="evenodd"/></g></g><path d="M82.9998 532.5C82.9998 521.73 91.7303 513 102.5 513 113.27 513 122 521.73 122 532.5 122 543.27 113.27 552 102.5 552 91.7303 552 82.9998 543.27 82.9998 532.5Z" fill="#F2F2F2" fill-rule="evenodd"/><g filter="url(#fx2)" transform="translate(69 823)"><g><path d="M20.4816 39.9818C20.4816 29.2123 29.2121 20.4819 39.9817 20.4819 50.7513 20.4819 59.4818 29.2123 59.4818 39.9818 59.4818 50.7513 50.7513 59.4817 39.9817 59.4817 29.2121 59.4817 20.4816 50.7513 20.4816 39.9818Z" fill="#F2F2F2" fill-rule="evenodd"/></g></g><path d="M82.9998 856.5C82.9998 845.73 91.7303 837 102.5 837 113.27 837 122 845.73 122 856.5 122 867.269 113.27 876 102.5 876 91.7303 876 82.9998 867.269 82.9998 856.5Z" fill="#F2F2F2" fill-rule="evenodd"/><g filter="url(#fx3)" transform="translate(654 499)"><g><path d="M20.4817 39.9818C20.4817 29.2122 29.2122 20.4817 39.9818 20.4817 50.7514 20.4817 59.4819 29.2122 59.4819 39.9818 59.4819 50.7514 50.7514 59.4819 39.9818 59.4819 29.2122 59.4819 20.4817 50.7514 20.4817 39.9818Z" fill="#F2F2F2" fill-rule="evenodd"/></g></g><path d="M668 532.5C668 521.73 676.73 513 687.5 513 698.27 513 707 521.73 707 532.5 707 543.27 698.27 552 687.5 552 676.73 552 668 543.27 668 532.5Z" fill="#F2F2F2" fill-rule="evenodd"/></g></svg>